<mxfile host="65bd71144e" pages="3">
    <diagram name="AAP(Execution分離)" id="HrPJcTjiu_YD1BFE7S78">
        <mxGraphModel dx="1823" dy="1182" grid="1" gridSize="10" guides="1" tooltips="1" connect="1" arrows="1" fold="1" page="1" pageScale="1" pageWidth="2336" pageHeight="1654" math="0" shadow="0">
            <root>
                <mxCell id="zyLyGUna_AHrawo6U4M7-0"/>
                <mxCell id="zyLyGUna_AHrawo6U4M7-1" parent="zyLyGUna_AHrawo6U4M7-0"/>
                <mxCell id="Z7OklR-XN3L8Ld0WTs61-5" value="" style="group" parent="zyLyGUna_AHrawo6U4M7-1" vertex="1" connectable="0">
                    <mxGeometry x="1620" y="612" width="240" height="220" as="geometry"/>
                </mxCell>
                <mxCell id="Z7OklR-XN3L8Ld0WTs61-6" value="Ansible 自動化対象" style="whiteSpace=wrap;html=1;fontSize=17;verticalAlign=top;strokeColor=#FFC5C2;fillColor=#FFF0F0;gradientColor=#FFF0F0;rounded=1;arcSize=6;" parent="Z7OklR-XN3L8Ld0WTs61-5" vertex="1">
                    <mxGeometry width="240" height="220" as="geometry"/>
                </mxCell>
                <mxCell id="Z7OklR-XN3L8Ld0WTs61-7" value="・&lt;br style=&quot;font-size: 10px;&quot;&gt;・&lt;br style=&quot;font-size: 10px;&quot;&gt;・" style="rounded=0;whiteSpace=wrap;html=1;strokeColor=none;strokeWidth=2;fontSize=10;fillColor=none;fontStyle=1" parent="Z7OklR-XN3L8Ld0WTs61-5" vertex="1">
                    <mxGeometry x="52.696666666666715" y="98.75" width="154.66666666666666" height="32.63" as="geometry"/>
                </mxCell>
                <mxCell id="Z7OklR-XN3L8Ld0WTs61-8" value="&lt;font style=&quot;font-size: 16px;&quot;&gt;Managed ノード&lt;/font&gt;" style="rounded=0;whiteSpace=wrap;html=1;strokeWidth=1;fontSize=14;strokeColor=#b85450;fillColor=#f8cecc;gradientColor=#FF9999;" parent="Z7OklR-XN3L8Ld0WTs61-5" vertex="1">
                    <mxGeometry x="49.72497435897435" y="142.25" width="160.6153846153846" height="47.25" as="geometry"/>
                </mxCell>
                <mxCell id="Z7OklR-XN3L8Ld0WTs61-9" value="&lt;font style=&quot;font-size: 16px;&quot;&gt;Managed ノード&lt;/font&gt;" style="rounded=0;whiteSpace=wrap;html=1;strokeWidth=1;fontSize=14;strokeColor=#b85450;fillColor=#f8cecc;gradientColor=#FF9999;" parent="Z7OklR-XN3L8Ld0WTs61-5" vertex="1">
                    <mxGeometry x="49.722307692307595" y="46.5" width="160.6153846153846" height="47.25" as="geometry"/>
                </mxCell>
                <mxCell id="Z7OklR-XN3L8Ld0WTs61-4" value="" style="group" parent="zyLyGUna_AHrawo6U4M7-1" vertex="1" connectable="0">
                    <mxGeometry x="1620" y="370" width="240" height="220" as="geometry"/>
                </mxCell>
                <mxCell id="Z7OklR-XN3L8Ld0WTs61-0" value="Ansible 自動化対象" style="whiteSpace=wrap;html=1;fontSize=17;verticalAlign=top;strokeColor=#FFC5C2;fillColor=#FFF0F0;gradientColor=#FFF0F0;rounded=1;arcSize=6;" parent="Z7OklR-XN3L8Ld0WTs61-4" vertex="1">
                    <mxGeometry width="240" height="220" as="geometry"/>
                </mxCell>
                <mxCell id="Z7OklR-XN3L8Ld0WTs61-1" value="・&lt;br style=&quot;font-size: 10px;&quot;&gt;・&lt;br style=&quot;font-size: 10px;&quot;&gt;・" style="rounded=0;whiteSpace=wrap;html=1;strokeColor=none;strokeWidth=2;fontSize=10;fillColor=none;fontStyle=1" parent="Z7OklR-XN3L8Ld0WTs61-4" vertex="1">
                    <mxGeometry x="52.696666666666715" y="98.75" width="154.66666666666666" height="32.63" as="geometry"/>
                </mxCell>
                <mxCell id="Z7OklR-XN3L8Ld0WTs61-2" value="&lt;font style=&quot;font-size: 16px;&quot;&gt;Managed ノード&lt;/font&gt;" style="rounded=0;whiteSpace=wrap;html=1;strokeWidth=1;fontSize=14;strokeColor=#b85450;fillColor=#f8cecc;gradientColor=#FF9999;" parent="Z7OklR-XN3L8Ld0WTs61-4" vertex="1">
                    <mxGeometry x="49.72497435897435" y="142.25" width="160.6153846153846" height="47.25" as="geometry"/>
                </mxCell>
                <mxCell id="Z7OklR-XN3L8Ld0WTs61-3" value="&lt;font style=&quot;font-size: 16px;&quot;&gt;Managed ノード&lt;/font&gt;" style="rounded=0;whiteSpace=wrap;html=1;strokeWidth=1;fontSize=14;strokeColor=#b85450;fillColor=#f8cecc;gradientColor=#FF9999;" parent="Z7OklR-XN3L8Ld0WTs61-4" vertex="1">
                    <mxGeometry x="49.722307692307595" y="46.5" width="160.6153846153846" height="47.25" as="geometry"/>
                </mxCell>
                <mxCell id="zyLyGUna_AHrawo6U4M7-2" value="ボリュームマウント" style="whiteSpace=wrap;html=1;fontSize=14;verticalAlign=middle;strokeColor=none;fillColor=none;align=left;fontColor=#333333;" parent="zyLyGUna_AHrawo6U4M7-1" vertex="1">
                    <mxGeometry x="420" y="594" width="168" height="44" as="geometry"/>
                </mxCell>
                <mxCell id="zyLyGUna_AHrawo6U4M7-3" value="Ansible 自動化対象" style="whiteSpace=wrap;html=1;fontSize=17;verticalAlign=top;strokeColor=#FFC5C2;fillColor=#FFF0F0;gradientColor=#FFF0F0;rounded=1;arcSize=6;" parent="zyLyGUna_AHrawo6U4M7-1" vertex="1">
                    <mxGeometry x="1620" y="90" width="240" height="220" as="geometry"/>
                </mxCell>
                <mxCell id="zyLyGUna_AHrawo6U4M7-4" value="・&lt;br style=&quot;font-size: 10px;&quot;&gt;・&lt;br style=&quot;font-size: 10px;&quot;&gt;・" style="rounded=0;whiteSpace=wrap;html=1;strokeColor=none;strokeWidth=2;fontSize=10;fillColor=none;fontStyle=1" parent="zyLyGUna_AHrawo6U4M7-1" vertex="1">
                    <mxGeometry x="1672.6966666666667" y="188.75" width="154.66666666666666" height="32.63" as="geometry"/>
                </mxCell>
                <mxCell id="zyLyGUna_AHrawo6U4M7-5" value="&lt;font style=&quot;font-size: 16px;&quot;&gt;Managed ノード&lt;/font&gt;" style="rounded=0;whiteSpace=wrap;html=1;strokeWidth=1;fontSize=14;strokeColor=#b85450;fillColor=#f8cecc;gradientColor=#FF9999;" parent="zyLyGUna_AHrawo6U4M7-1" vertex="1">
                    <mxGeometry x="1669.7249743589744" y="232.25" width="160.6153846153846" height="47.25" as="geometry"/>
                </mxCell>
                <mxCell id="zyLyGUna_AHrawo6U4M7-8" value="&lt;font style=&quot;font-size: 16px;&quot;&gt;Managed ノード&lt;/font&gt;" style="rounded=0;whiteSpace=wrap;html=1;strokeWidth=1;fontSize=14;strokeColor=#b85450;fillColor=#f8cecc;gradientColor=#FF9999;" parent="zyLyGUna_AHrawo6U4M7-1" vertex="1">
                    <mxGeometry x="1669.7223076923076" y="136.5" width="160.6153846153846" height="47.25" as="geometry"/>
                </mxCell>
                <mxCell id="zyLyGUna_AHrawo6U4M7-9" value="&lt;font style=&quot;font-size: 17px;&quot;&gt;&lt;span style=&quot;background-color: initial;&quot;&gt;Exastro ITAシステム&lt;/span&gt;&lt;br style=&quot;&quot;&gt;&lt;/font&gt;&lt;div style=&quot;font-size: 17px;&quot;&gt;&lt;font style=&quot;font-size: 17px;&quot;&gt;(+ Ansible driver)&lt;/font&gt;&lt;/div&gt;" style="whiteSpace=wrap;html=1;fillColor=#f5f5f5;fontSize=16;strokeColor=#666666;verticalAlign=top;gradientColor=#EDEDED;" parent="zyLyGUna_AHrawo6U4M7-1" vertex="1">
                    <mxGeometry x="102" y="93" width="608" height="707" as="geometry"/>
                </mxCell>
                <mxCell id="zyLyGUna_AHrawo6U4M7-10" value="Web コンテナ群" style="whiteSpace=wrap;html=1;fontSize=14;verticalAlign=top;strokeColor=none;" parent="zyLyGUna_AHrawo6U4M7-1" vertex="1">
                    <mxGeometry x="120" y="166" width="270" height="204" as="geometry"/>
                </mxCell>
                <mxCell id="zyLyGUna_AHrawo6U4M7-11" value="Ansible コンテナ群" style="whiteSpace=wrap;html=1;fontSize=14;verticalAlign=top;strokeColor=none;" parent="zyLyGUna_AHrawo6U4M7-1" vertex="1">
                    <mxGeometry x="420" y="279.5" width="270" height="233.5" as="geometry"/>
                </mxCell>
                <mxCell id="zyLyGUna_AHrawo6U4M7-12" value="Backyard コンテナ群" style="whiteSpace=wrap;html=1;fontSize=14;verticalAlign=top;strokeColor=none;" parent="zyLyGUna_AHrawo6U4M7-1" vertex="1">
                    <mxGeometry x="120" y="390" width="270" height="204" as="geometry"/>
                </mxCell>
                <mxCell id="zyLyGUna_AHrawo6U4M7-13" value="DBMS機能" style="whiteSpace=wrap;html=1;fontSize=14;verticalAlign=middle;strokeColor=none;" parent="zyLyGUna_AHrawo6U4M7-1" vertex="1">
                    <mxGeometry x="120" y="612" width="270" height="44" as="geometry"/>
                </mxCell>
                <mxCell id="zyLyGUna_AHrawo6U4M7-14" value="データリレイトレージ&lt;br&gt;(IN/OUT)" style="shape=cylinder3;whiteSpace=wrap;html=1;boundedLbl=1;backgroundOutline=1;size=15;flipV=0;flipH=0;direction=south;strokeColor=#FFFFFF;strokeWidth=2;fontSize=14;fillColor=#dae8fc;gradientColor=#A7D1E3;gradientDirection=east;" parent="zyLyGUna_AHrawo6U4M7-1" vertex="1">
                    <mxGeometry x="120" y="704" width="270" height="60" as="geometry"/>
                </mxCell>
                <mxCell id="zyLyGUna_AHrawo6U4M7-15" value="外部連携データ" style="whiteSpace=wrap;html=1;fontSize=14;verticalAlign=middle;strokeColor=none;fillColor=none;" parent="zyLyGUna_AHrawo6U4M7-1" vertex="1">
                    <mxGeometry x="120" y="670" width="270" height="44" as="geometry"/>
                </mxCell>
                <mxCell id="zyLyGUna_AHrawo6U4M7-16" value="" style="whiteSpace=wrap;html=1;fillColor=#fff2cc;fontSize=14;strokeColor=#d6b656;verticalAlign=middle;gradientColor=#ffd966;" parent="zyLyGUna_AHrawo6U4M7-1" vertex="1">
                    <mxGeometry x="141" y="200" width="228" height="36" as="geometry"/>
                </mxCell>
                <mxCell id="zyLyGUna_AHrawo6U4M7-17" value="" style="whiteSpace=wrap;html=1;fillColor=#fff2cc;fontSize=14;strokeColor=#d6b656;verticalAlign=middle;gradientColor=#ffd966;" parent="zyLyGUna_AHrawo6U4M7-1" vertex="1">
                    <mxGeometry x="141" y="243.5" width="228" height="36" as="geometry"/>
                </mxCell>
                <mxCell id="zyLyGUna_AHrawo6U4M7-18" value="" style="whiteSpace=wrap;html=1;fillColor=#fff2cc;fontSize=14;strokeColor=#d6b656;verticalAlign=middle;gradientColor=#ffd966;" parent="zyLyGUna_AHrawo6U4M7-1" vertex="1">
                    <mxGeometry x="141" y="286" width="228" height="36" as="geometry"/>
                </mxCell>
                <mxCell id="zyLyGUna_AHrawo6U4M7-19" value="・&lt;br style=&quot;font-size: 10px;&quot;&gt;・&lt;br style=&quot;font-size: 10px;&quot;&gt;・" style="rounded=0;whiteSpace=wrap;html=1;strokeColor=none;strokeWidth=2;fontSize=10;fillColor=none;fontStyle=1" parent="zyLyGUna_AHrawo6U4M7-1" vertex="1">
                    <mxGeometry x="143.2" y="339.9999999999999" width="218.8" height="10" as="geometry"/>
                </mxCell>
                <mxCell id="zyLyGUna_AHrawo6U4M7-20" value="" style="whiteSpace=wrap;html=1;fillColor=#fff2cc;fontSize=14;strokeColor=#d6b656;verticalAlign=middle;gradientColor=#ffd966;" parent="zyLyGUna_AHrawo6U4M7-1" vertex="1">
                    <mxGeometry x="141" y="420" width="228" height="36" as="geometry"/>
                </mxCell>
                <mxCell id="zyLyGUna_AHrawo6U4M7-21" value="" style="whiteSpace=wrap;html=1;fillColor=#fff2cc;fontSize=14;strokeColor=#d6b656;verticalAlign=middle;gradientColor=#ffd966;" parent="zyLyGUna_AHrawo6U4M7-1" vertex="1">
                    <mxGeometry x="141" y="463.5" width="228" height="36" as="geometry"/>
                </mxCell>
                <mxCell id="zyLyGUna_AHrawo6U4M7-22" value="" style="whiteSpace=wrap;html=1;fillColor=#fff2cc;fontSize=14;strokeColor=#d6b656;verticalAlign=middle;gradientColor=#ffd966;" parent="zyLyGUna_AHrawo6U4M7-1" vertex="1">
                    <mxGeometry x="141" y="506" width="228" height="36" as="geometry"/>
                </mxCell>
                <mxCell id="zyLyGUna_AHrawo6U4M7-23" value="・&lt;br style=&quot;font-size: 10px;&quot;&gt;・&lt;br style=&quot;font-size: 10px;&quot;&gt;・" style="rounded=0;whiteSpace=wrap;html=1;strokeColor=none;strokeWidth=2;fontSize=10;fillColor=none;fontStyle=1" parent="zyLyGUna_AHrawo6U4M7-1" vertex="1">
                    <mxGeometry x="143.2" y="559.9999999999999" width="218.8" height="10" as="geometry"/>
                </mxCell>
                <mxCell id="zyLyGUna_AHrawo6U4M7-24" value="ita--by-ansible-execute" style="whiteSpace=wrap;html=1;fillColor=#fff2cc;fontSize=14;strokeColor=#d6b656;verticalAlign=middle;gradientColor=#ffd966;" parent="zyLyGUna_AHrawo6U4M7-1" vertex="1">
                    <mxGeometry x="441" y="324" width="228" height="46" as="geometry"/>
                </mxCell>
                <mxCell id="zyLyGUna_AHrawo6U4M7-25" value="ita-by-ansible-agent" style="whiteSpace=wrap;html=1;fillColor=#fff2cc;fontSize=14;strokeColor=#d6b656;verticalAlign=top;gradientColor=#ffd966;" parent="zyLyGUna_AHrawo6U4M7-1" vertex="1">
                    <mxGeometry x="441" y="393" width="228" height="90" as="geometry"/>
                </mxCell>
                <mxCell id="zyLyGUna_AHrawo6U4M7-26" value="Ansible Core" style="whiteSpace=wrap;html=1;fillColor=#f5f5f5;fontSize=14;strokeColor=#666666;verticalAlign=middle;gradientColor=#b3b3b3;" parent="zyLyGUna_AHrawo6U4M7-1" vertex="1">
                    <mxGeometry x="456" y="429" width="198" height="36" as="geometry"/>
                </mxCell>
                <mxCell id="zyLyGUna_AHrawo6U4M7-27" style="edgeStyle=orthogonalEdgeStyle;rounded=1;orthogonalLoop=1;jettySize=auto;html=1;exitX=0;exitY=0.5;exitDx=0;exitDy=0;fontSize=14;jumpStyle=gap;strokeColor=#333333;entryX=0.5;entryY=0;entryDx=0;entryDy=0;entryPerimeter=0;" parent="zyLyGUna_AHrawo6U4M7-1" source="zyLyGUna_AHrawo6U4M7-24" target="zyLyGUna_AHrawo6U4M7-14" edge="1">
                    <mxGeometry relative="1" as="geometry">
                        <mxPoint x="679" y="357" as="sourcePoint"/>
                        <mxPoint x="826" y="358" as="targetPoint"/>
                        <Array as="points">
                            <mxPoint x="410" y="347"/>
                            <mxPoint x="410" y="734"/>
                        </Array>
                    </mxGeometry>
                </mxCell>
                <mxCell id="zyLyGUna_AHrawo6U4M7-30" value="Git" style="whiteSpace=wrap;html=1;fillColor=#d5e8d4;fontSize=14;strokeColor=#82b366;verticalAlign=middle;gradientColor=#B9E0A5;" parent="zyLyGUna_AHrawo6U4M7-1" vertex="1">
                    <mxGeometry x="854" y="624.25" width="270" height="36" as="geometry"/>
                </mxCell>
                <mxCell id="zyLyGUna_AHrawo6U4M7-31" value="Git リポジトリ" style="shape=cylinder3;whiteSpace=wrap;html=1;boundedLbl=1;backgroundOutline=1;size=15;flipV=0;flipH=0;direction=south;strokeColor=#FFFFFF;strokeWidth=2;fontSize=14;fillColor=#DAE8FC;gradientColor=#A7D1E3;gradientDirection=east;" parent="zyLyGUna_AHrawo6U4M7-1" vertex="1">
                    <mxGeometry x="854" y="670.25" width="270" height="60" as="geometry"/>
                </mxCell>
                <mxCell id="zyLyGUna_AHrawo6U4M7-32" value="" style="group" parent="zyLyGUna_AHrawo6U4M7-1" vertex="1" connectable="0">
                    <mxGeometry x="790" y="232.75" width="398" height="321.0183590644357" as="geometry"/>
                </mxCell>
                <mxCell id="zyLyGUna_AHrawo6U4M7-33" value="&lt;font style=&quot;font-size: 18px;&quot;&gt;Control ノード&lt;/font&gt;" style="whiteSpace=wrap;html=1;fillColor=#dae8fc;fontSize=16;strokeColor=#6c8ebf;verticalAlign=top;" parent="zyLyGUna_AHrawo6U4M7-32" vertex="1">
                    <mxGeometry x="29" y="10" width="340" height="240" as="geometry"/>
                </mxCell>
                <mxCell id="zyLyGUna_AHrawo6U4M7-34" value="SCM管理ディレクトリ" style="shape=cylinder3;whiteSpace=wrap;html=1;boundedLbl=1;backgroundOutline=1;size=15;flipV=0;flipH=0;direction=south;strokeColor=#FFFFFF;strokeWidth=2;fontSize=14;fillColor=#dae8fc;gradientColor=#A7D1E3;gradientDirection=east;" parent="zyLyGUna_AHrawo6U4M7-32" vertex="1">
                    <mxGeometry x="64" y="67.5" width="270" height="60" as="geometry"/>
                </mxCell>
                <mxCell id="zyLyGUna_AHrawo6U4M7-35" value="ITA作業用ディレクトリ" style="shape=cylinder3;whiteSpace=wrap;html=1;boundedLbl=1;backgroundOutline=1;size=15;flipV=0;flipH=0;direction=south;strokeColor=#FFFFFF;strokeWidth=2;fontSize=14;fillColor=#dae8fc;gradientColor=#A7D1E3;gradientDirection=east;" parent="zyLyGUna_AHrawo6U4M7-32" vertex="1">
                    <mxGeometry x="64" y="144" width="270" height="60" as="geometry"/>
                </mxCell>
                <mxCell id="zyLyGUna_AHrawo6U4M7-36" value="・&lt;br style=&quot;font-size: 12px;&quot;&gt;・&lt;br style=&quot;font-size: 12px;&quot;&gt;・" style="rounded=0;whiteSpace=wrap;html=1;strokeColor=none;strokeWidth=2;fontSize=12;fillColor=none;fontStyle=1" parent="zyLyGUna_AHrawo6U4M7-32" vertex="1">
                    <mxGeometry x="89.59829059829065" y="260.0032901913655" width="218.80341880341882" height="61.01506887307017" as="geometry"/>
                </mxCell>
                <mxCell id="zyLyGUna_AHrawo6U4M7-37" style="edgeStyle=orthogonalEdgeStyle;rounded=1;orthogonalLoop=1;jettySize=auto;html=1;fontSize=14;jumpStyle=gap;strokeColor=#333333;entryX=1;entryY=0.5;entryDx=0;entryDy=0;exitX=1;exitY=0.75;exitDx=0;exitDy=0;" parent="zyLyGUna_AHrawo6U4M7-1" source="zyLyGUna_AHrawo6U4M7-33" target="zyLyGUna_AHrawo6U4M7-30" edge="1">
                    <mxGeometry relative="1" as="geometry">
                        <mxPoint x="604" y="-508.2499999999998" as="sourcePoint"/>
                        <mxPoint x="815" y="-174.75" as="targetPoint"/>
                        <Array as="points">
                            <mxPoint x="1250" y="423"/>
                            <mxPoint x="1250" y="642"/>
                        </Array>
                    </mxGeometry>
                </mxCell>
                <mxCell id="zyLyGUna_AHrawo6U4M7-38" value="" style="whiteSpace=wrap;html=1;fillColor=#dae8fc;fontSize=16;strokeColor=#6c8ebf;verticalAlign=top;" parent="zyLyGUna_AHrawo6U4M7-1" vertex="1">
                    <mxGeometry x="820" y="550.25" width="340" height="37" as="geometry"/>
                </mxCell>
                <mxCell id="zyLyGUna_AHrawo6U4M7-39" style="edgeStyle=orthogonalEdgeStyle;rounded=1;orthogonalLoop=1;jettySize=auto;html=1;exitX=1;exitY=0.25;exitDx=0;exitDy=0;fontSize=14;jumpStyle=gap;strokeColor=#333333;entryX=0.003;entryY=0.386;entryDx=0;entryDy=0;entryPerimeter=0;" parent="zyLyGUna_AHrawo6U4M7-1" source="zyLyGUna_AHrawo6U4M7-24" target="zyLyGUna_AHrawo6U4M7-33" edge="1">
                    <mxGeometry relative="1" as="geometry">
                        <mxPoint x="810" y="334" as="targetPoint"/>
                        <mxPoint x="669" y="343.45" as="sourcePoint"/>
                    </mxGeometry>
                </mxCell>
                <mxCell id="zyLyGUna_AHrawo6U4M7-40" style="edgeStyle=orthogonalEdgeStyle;rounded=1;orthogonalLoop=1;jettySize=auto;html=1;fontSize=14;jumpStyle=gap;strokeColor=#333333;entryX=0;entryY=0.5;entryDx=0;entryDy=0;exitX=1;exitY=0.75;exitDx=0;exitDy=0;" parent="zyLyGUna_AHrawo6U4M7-1" source="zyLyGUna_AHrawo6U4M7-24" target="zyLyGUna_AHrawo6U4M7-30" edge="1">
                    <mxGeometry relative="1" as="geometry">
                        <mxPoint x="680" y="360" as="sourcePoint"/>
                        <mxPoint x="881" y="690.75" as="targetPoint"/>
                    </mxGeometry>
                </mxCell>
                <mxCell id="zyLyGUna_AHrawo6U4M7-41" value="① http&lt;br style=&quot;font-size: 17px;&quot;&gt;② ssh" style="whiteSpace=wrap;html=1;fontSize=17;verticalAlign=middle;strokeColor=none;fillColor=none;align=left;fontColor=#333333;" parent="zyLyGUna_AHrawo6U4M7-1" vertex="1">
                    <mxGeometry x="720" y="286" width="80" height="44" as="geometry"/>
                </mxCell>
                <mxCell id="zyLyGUna_AHrawo6U4M7-42" value="③ http" style="whiteSpace=wrap;html=1;fontSize=17;verticalAlign=middle;strokeColor=none;fillColor=none;align=left;fontColor=#333333;" parent="zyLyGUna_AHrawo6U4M7-1" vertex="1">
                    <mxGeometry x="750" y="643.13" width="80" height="44" as="geometry"/>
                </mxCell>
                <mxCell id="zyLyGUna_AHrawo6U4M7-43" value="⑤ http" style="whiteSpace=wrap;html=1;fontSize=17;verticalAlign=middle;strokeColor=none;fillColor=none;align=left;fontColor=#333333;" parent="zyLyGUna_AHrawo6U4M7-1" vertex="1">
                    <mxGeometry x="1168" y="643.13" width="80" height="44" as="geometry"/>
                </mxCell>
                <mxCell id="zyLyGUna_AHrawo6U4M7-44" value="&lt;span style=&quot;color: rgb(0, 0, 0); text-align: center;&quot;&gt;④ ssh,telnet,他&lt;/span&gt;" style="whiteSpace=wrap;html=1;fontSize=17;verticalAlign=middle;strokeColor=none;fillColor=none;align=left;fontColor=#333333;" parent="zyLyGUna_AHrawo6U4M7-1" vertex="1">
                    <mxGeometry x="1170" y="322" width="123" height="44" as="geometry"/>
                </mxCell>
                <mxCell id="yMIp4jwXd7m6bD_qJT0J-0" value="Instance Group" style="whiteSpace=wrap;html=1;fontSize=17;verticalAlign=top;strokeColor=#FFC5C2;fillColor=#FFF0F0;gradientColor=#FFF0F0;rounded=1;arcSize=6;" parent="zyLyGUna_AHrawo6U4M7-1" vertex="1">
                    <mxGeometry x="1370" y="70" width="220" height="260" as="geometry"/>
                </mxCell>
                <mxCell id="yMIp4jwXd7m6bD_qJT0J-4" value="&lt;font style=&quot;font-size: 16px;&quot;&gt;Execution ノード&lt;/font&gt;" style="rounded=0;whiteSpace=wrap;html=1;strokeWidth=1;fontSize=14;strokeColor=#b85450;fillColor=#f8cecc;gradientColor=#FF9999;" parent="zyLyGUna_AHrawo6U4M7-1" vertex="1">
                    <mxGeometry x="1410.0023076923076" y="188.75" width="160.6153846153846" height="47.25" as="geometry"/>
                </mxCell>
                <mxCell id="zyLyGUna_AHrawo6U4M7-29" value="" style="edgeStyle=elbowEdgeStyle;html=1;fontColor=#333333;startArrow=classic;startFill=1;endArrow=none;endFill=0;strokeColor=#333333;strokeWidth=1;jumpStyle=gap;entryX=1;entryY=0.5;entryDx=0;entryDy=0;exitX=0;exitY=0.5;exitDx=0;exitDy=0;" parent="zyLyGUna_AHrawo6U4M7-1" source="zyLyGUna_AHrawo6U4M7-8" target="yMIp4jwXd7m6bD_qJT0J-4" edge="1">
                    <mxGeometry relative="1" as="geometry">
                        <mxPoint x="854.9230769230771" y="377.1249999999998" as="sourcePoint"/>
                        <mxPoint x="654" y="472.5" as="targetPoint"/>
                        <Array as="points">
                            <mxPoint x="1640" y="180"/>
                        </Array>
                    </mxGeometry>
                </mxCell>
                <mxCell id="zyLyGUna_AHrawo6U4M7-45" style="edgeStyle=orthogonalEdgeStyle;rounded=1;orthogonalLoop=1;jettySize=auto;html=1;exitX=1;exitY=0.5;exitDx=0;exitDy=0;fontSize=14;jumpStyle=gap;strokeColor=#333333;entryX=0;entryY=0.5;entryDx=0;entryDy=0;" parent="zyLyGUna_AHrawo6U4M7-1" source="yMIp4jwXd7m6bD_qJT0J-4" target="zyLyGUna_AHrawo6U4M7-5" edge="1">
                    <mxGeometry relative="1" as="geometry">
                        <mxPoint x="1339.8899999999999" y="403.2700000000001" as="targetPoint"/>
                        <mxPoint x="1200" y="402.34000000000003" as="sourcePoint"/>
                        <Array as="points">
                            <mxPoint x="1640" y="212"/>
                            <mxPoint x="1640" y="256"/>
                        </Array>
                    </mxGeometry>
                </mxCell>
                <mxCell id="zyLyGUna_AHrawo6U4M7-28" value="" style="edgeStyle=elbowEdgeStyle;html=1;fontColor=#333333;startArrow=classic;startFill=1;endArrow=none;endFill=0;strokeColor=#333333;strokeWidth=1;jumpStyle=gap;entryX=1;entryY=0.5;entryDx=0;entryDy=0;exitX=0;exitY=0.5;exitDx=0;exitDy=0;" parent="zyLyGUna_AHrawo6U4M7-1" source="yMIp4jwXd7m6bD_qJT0J-4" target="zyLyGUna_AHrawo6U4M7-33" edge="1">
                    <mxGeometry relative="1" as="geometry">
                        <mxPoint x="1430" y="209.1300000000001" as="sourcePoint"/>
                        <mxPoint x="654" y="472.5" as="targetPoint"/>
                        <Array as="points">
                            <mxPoint x="1310" y="280"/>
                        </Array>
                    </mxGeometry>
                </mxCell>
                <mxCell id="yMIp4jwXd7m6bD_qJT0J-5" value="Instance Group" style="whiteSpace=wrap;html=1;fontSize=17;verticalAlign=top;strokeColor=#FFC5C2;fillColor=#FFF0F0;gradientColor=#FFF0F0;rounded=1;arcSize=6;" parent="zyLyGUna_AHrawo6U4M7-1" vertex="1">
                    <mxGeometry x="1370" y="400.25" width="220.31" height="399.75" as="geometry"/>
                </mxCell>
                <mxCell id="yMIp4jwXd7m6bD_qJT0J-6" value="&lt;font style=&quot;font-size: 16px;&quot;&gt;Execution ノード&lt;/font&gt;" style="rounded=0;whiteSpace=wrap;html=1;strokeWidth=1;fontSize=14;strokeColor=#b85450;fillColor=#f8cecc;gradientColor=#FF9999;" parent="zyLyGUna_AHrawo6U4M7-1" vertex="1">
                    <mxGeometry x="1410.0023076923076" y="465" width="160.6153846153846" height="47.25" as="geometry"/>
                </mxCell>
                <mxCell id="yMIp4jwXd7m6bD_qJT0J-7" value="" style="edgeStyle=elbowEdgeStyle;html=1;fontColor=#333333;startArrow=classic;startFill=1;endArrow=none;endFill=0;strokeColor=#333333;strokeWidth=1;jumpStyle=gap;entryX=1;entryY=0.5;entryDx=0;entryDy=0;exitX=0;exitY=0.5;exitDx=0;exitDy=0;" parent="zyLyGUna_AHrawo6U4M7-1" source="Z7OklR-XN3L8Ld0WTs61-3" target="yMIp4jwXd7m6bD_qJT0J-6" edge="1">
                    <mxGeometry x="0.6192" y="268" relative="1" as="geometry">
                        <mxPoint x="1669.7223076923074" y="430.125" as="sourcePoint"/>
                        <mxPoint x="1570.6476923076923" y="482.225" as="targetPoint"/>
                        <Array as="points">
                            <mxPoint x="1640" y="450"/>
                        </Array>
                        <mxPoint as="offset"/>
                    </mxGeometry>
                </mxCell>
                <mxCell id="yMIp4jwXd7m6bD_qJT0J-8" style="edgeStyle=orthogonalEdgeStyle;rounded=1;orthogonalLoop=1;jettySize=auto;html=1;fontSize=14;jumpStyle=gap;strokeColor=#333333;exitX=1;exitY=0.5;exitDx=0;exitDy=0;entryX=0;entryY=0.5;entryDx=0;entryDy=0;" parent="zyLyGUna_AHrawo6U4M7-1" source="yMIp4jwXd7m6bD_qJT0J-6" target="Z7OklR-XN3L8Ld0WTs61-2" edge="1">
                    <mxGeometry relative="1" as="geometry">
                        <mxPoint x="1669.7249743589746" y="525.875" as="targetPoint"/>
                        <mxPoint x="1570.6476923076923" y="482.225" as="sourcePoint"/>
                        <Array as="points">
                            <mxPoint x="1640" y="489"/>
                            <mxPoint x="1640" y="536"/>
                        </Array>
                    </mxGeometry>
                </mxCell>
                <mxCell id="yMIp4jwXd7m6bD_qJT0J-9" value="&lt;font style=&quot;font-size: 16px;&quot;&gt;Execution ノード&lt;/font&gt;" style="rounded=0;whiteSpace=wrap;html=1;strokeWidth=1;fontSize=14;strokeColor=#b85450;fillColor=#f8cecc;gradientColor=#FF9999;" parent="zyLyGUna_AHrawo6U4M7-1" vertex="1">
                    <mxGeometry x="1410.0023076923076" y="704" width="160.6153846153846" height="47.25" as="geometry"/>
                </mxCell>
                <mxCell id="FwET_xjF38KncHt4Y5W6-8" value="" style="edgeStyle=elbowEdgeStyle;html=1;fontColor=#333333;startArrow=classic;startFill=1;endArrow=none;endFill=0;strokeColor=#333333;strokeWidth=1;jumpStyle=gap;entryX=1;entryY=0.5;entryDx=0;entryDy=0;exitX=0;exitY=0.5;exitDx=0;exitDy=0;" parent="zyLyGUna_AHrawo6U4M7-1" source="Z7OklR-XN3L8Ld0WTs61-9" target="yMIp4jwXd7m6bD_qJT0J-9" edge="1">
                    <mxGeometry x="0.6192" y="268" relative="1" as="geometry">
                        <mxPoint x="1669.7223076923074" y="664.125" as="sourcePoint"/>
                        <mxPoint x="1570.6176923076923" y="716.1750000000001" as="targetPoint"/>
                        <Array as="points">
                            <mxPoint x="1640" y="683.36"/>
                        </Array>
                        <mxPoint as="offset"/>
                    </mxGeometry>
                </mxCell>
                <mxCell id="FwET_xjF38KncHt4Y5W6-9" style="edgeStyle=orthogonalEdgeStyle;rounded=1;orthogonalLoop=1;jettySize=auto;html=1;fontSize=14;jumpStyle=gap;strokeColor=#333333;entryX=0;entryY=0.5;entryDx=0;entryDy=0;exitX=1;exitY=0.5;exitDx=0;exitDy=0;" parent="zyLyGUna_AHrawo6U4M7-1" source="yMIp4jwXd7m6bD_qJT0J-9" target="Z7OklR-XN3L8Ld0WTs61-8" edge="1">
                    <mxGeometry relative="1" as="geometry">
                        <mxPoint x="1669.7249743589746" y="759.875" as="targetPoint"/>
                        <mxPoint x="1570.6176923076923" y="716.1750000000001" as="sourcePoint"/>
                        <Array as="points">
                            <mxPoint x="1640" y="728"/>
                            <mxPoint x="1640" y="778"/>
                        </Array>
                    </mxGeometry>
                </mxCell>
                <mxCell id="FwET_xjF38KncHt4Y5W6-10" value="" style="edgeStyle=elbowEdgeStyle;html=1;fontColor=#333333;startArrow=none;startFill=0;endArrow=none;endFill=0;strokeColor=#333333;strokeWidth=1;jumpStyle=gap;entryX=1;entryY=0.5;entryDx=0;entryDy=0;exitX=0.25;exitY=0;exitDx=0;exitDy=0;" parent="zyLyGUna_AHrawo6U4M7-1" source="FwET_xjF38KncHt4Y5W6-11" target="zyLyGUna_AHrawo6U4M7-33" edge="1">
                    <mxGeometry relative="1" as="geometry">
                        <mxPoint x="1300" y="480" as="sourcePoint"/>
                        <mxPoint x="1169" y="372.75" as="targetPoint"/>
                        <Array as="points">
                            <mxPoint x="1310" y="420"/>
                        </Array>
                    </mxGeometry>
                </mxCell>
                <mxCell id="FwET_xjF38KncHt4Y5W6-11" value="" style="whiteSpace=wrap;html=1;fillColor=none;fontSize=16;strokeColor=none;verticalAlign=top;rotation=90;" parent="zyLyGUna_AHrawo6U4M7-1" vertex="1">
                    <mxGeometry x="1261" y="616" width="145" height="39" as="geometry"/>
                </mxCell>
                <mxCell id="FwET_xjF38KncHt4Y5W6-12" value="" style="edgeStyle=elbowEdgeStyle;html=1;fontColor=#333333;startArrow=classic;startFill=1;endArrow=none;endFill=0;strokeColor=#333333;strokeWidth=1;jumpStyle=gap;entryX=0.25;entryY=0;entryDx=0;entryDy=0;exitX=0;exitY=0.5;exitDx=0;exitDy=0;" parent="zyLyGUna_AHrawo6U4M7-1" source="yMIp4jwXd7m6bD_qJT0J-6" target="FwET_xjF38KncHt4Y5W6-11" edge="1">
                    <mxGeometry relative="1" as="geometry">
                        <mxPoint x="1407.0523076923073" y="491.385" as="sourcePoint"/>
                        <mxPoint x="1307.9476923076923" y="543.635" as="targetPoint"/>
                        <Array as="points">
                            <mxPoint x="1380" y="540"/>
                        </Array>
                    </mxGeometry>
                </mxCell>
                <mxCell id="FwET_xjF38KncHt4Y5W6-13" value="" style="edgeStyle=elbowEdgeStyle;html=1;fontColor=#333333;startArrow=classic;startFill=1;endArrow=none;endFill=0;strokeColor=#333333;strokeWidth=1;jumpStyle=gap;exitX=0;exitY=0.5;exitDx=0;exitDy=0;entryX=0.25;entryY=0;entryDx=0;entryDy=0;" parent="zyLyGUna_AHrawo6U4M7-1" source="yMIp4jwXd7m6bD_qJT0J-9" target="FwET_xjF38KncHt4Y5W6-11" edge="1">
                    <mxGeometry relative="1" as="geometry">
                        <mxPoint x="1420.0023076923076" y="492.81500000000005" as="sourcePoint"/>
                        <mxPoint x="1344" y="609.5" as="targetPoint"/>
                        <Array as="points">
                            <mxPoint x="1380" y="650"/>
                        </Array>
                    </mxGeometry>
                </mxCell>
            </root>
        </mxGraphModel>
    </diagram>
    <diagram id="P0Y6QexMz69vUVXYiUK5" name="AAP(Hybrid)">
        <mxGraphModel dx="3647" dy="2363" grid="1" gridSize="10" guides="1" tooltips="1" connect="1" arrows="1" fold="1" page="1" pageScale="1" pageWidth="2336" pageHeight="1654" math="0" shadow="0">
            <root>
                <mxCell id="0"/>
                <mxCell id="1" parent="0"/>
                <mxCell id="E9rqh3Xw5hFvDiPMlZkM-31" value="ボリュームマウント" style="whiteSpace=wrap;html=1;fontSize=14;verticalAlign=middle;strokeColor=none;fillColor=none;align=left;fontColor=#333333;" parent="1" vertex="1">
                    <mxGeometry x="420" y="594" width="168" height="44" as="geometry"/>
                </mxCell>
                <mxCell id="E9rqh3Xw5hFvDiPMlZkM-2" value="Ansible 自動化対象" style="whiteSpace=wrap;html=1;fontSize=17;verticalAlign=top;strokeColor=#FFC5C2;fillColor=#FFF0F0;gradientColor=#FFF0F0;rounded=1;arcSize=6;" parent="1" vertex="1">
                    <mxGeometry x="1310" y="177" width="278" height="340" as="geometry"/>
                </mxCell>
                <mxCell id="E9rqh3Xw5hFvDiPMlZkM-3" value="・&lt;br style=&quot;font-size: 10px;&quot;&gt;・&lt;br style=&quot;font-size: 10px;&quot;&gt;・" style="rounded=0;whiteSpace=wrap;html=1;strokeColor=none;strokeWidth=2;fontSize=10;fillColor=none;fontStyle=1" parent="1" vertex="1">
                    <mxGeometry x="1372.6966666666667" y="293.5" width="154.66666666666666" height="32.63" as="geometry"/>
                </mxCell>
                <mxCell id="E9rqh3Xw5hFvDiPMlZkM-4" value="&lt;font style=&quot;font-size: 16px;&quot;&gt;Managed ノード&lt;/font&gt;" style="rounded=0;whiteSpace=wrap;html=1;strokeWidth=1;fontSize=14;strokeColor=#b85450;fillColor=#f8cecc;gradientColor=#FF9999;" parent="1" vertex="1">
                    <mxGeometry x="1372.6949743589744" y="339.13" width="160.6153846153846" height="47.25" as="geometry"/>
                </mxCell>
                <mxCell id="E9rqh3Xw5hFvDiPMlZkM-5" value="・&lt;br style=&quot;font-size: 10px;&quot;&gt;・&lt;br style=&quot;font-size: 10px;&quot;&gt;・" style="rounded=0;whiteSpace=wrap;html=1;strokeColor=none;strokeWidth=2;fontSize=10;fillColor=none;fontStyle=1" parent="1" vertex="1">
                    <mxGeometry x="1372.6966666666667" y="394" width="154.66666666666666" height="32.63" as="geometry"/>
                </mxCell>
                <mxCell id="E9rqh3Xw5hFvDiPMlZkM-6" value="&lt;font style=&quot;font-size: 16px;&quot;&gt;Managed ノード&lt;/font&gt;" style="rounded=0;whiteSpace=wrap;html=1;strokeWidth=1;fontSize=14;strokeColor=#b85450;fillColor=#f8cecc;gradientColor=#FF9999;" parent="1" vertex="1">
                    <mxGeometry x="1372.6923076923076" y="436.25" width="160.6153846153846" height="47.25" as="geometry"/>
                </mxCell>
                <mxCell id="E9rqh3Xw5hFvDiPMlZkM-7" value="&lt;font style=&quot;font-size: 16px;&quot;&gt;Managed ノード&lt;/font&gt;" style="rounded=0;whiteSpace=wrap;html=1;strokeWidth=1;fontSize=14;strokeColor=#b85450;fillColor=#f8cecc;gradientColor=#FF9999;" parent="1" vertex="1">
                    <mxGeometry x="1372.6923076923076" y="233.5" width="160.6153846153846" height="47.25" as="geometry"/>
                </mxCell>
                <mxCell id="E9rqh3Xw5hFvDiPMlZkM-8" value="&lt;font style=&quot;font-size: 17px;&quot;&gt;&lt;span style=&quot;background-color: initial;&quot;&gt;Exastro ITAシステム&lt;/span&gt;&lt;br style=&quot;&quot;&gt;&lt;/font&gt;&lt;div style=&quot;font-size: 17px;&quot;&gt;&lt;font style=&quot;font-size: 17px;&quot;&gt;(+ Ansible driver)&lt;/font&gt;&lt;/div&gt;" style="whiteSpace=wrap;html=1;fillColor=#f5f5f5;fontSize=16;strokeColor=#666666;verticalAlign=top;gradientColor=#EDEDED;" parent="1" vertex="1">
                    <mxGeometry x="102" y="93" width="608" height="707" as="geometry"/>
                </mxCell>
                <mxCell id="E9rqh3Xw5hFvDiPMlZkM-9" value="Web コンテナ群" style="whiteSpace=wrap;html=1;fontSize=14;verticalAlign=top;strokeColor=none;" parent="1" vertex="1">
                    <mxGeometry x="120" y="166" width="270" height="204" as="geometry"/>
                </mxCell>
                <mxCell id="E9rqh3Xw5hFvDiPMlZkM-10" value="Ansible コンテナ群" style="whiteSpace=wrap;html=1;fontSize=14;verticalAlign=top;strokeColor=none;" parent="1" vertex="1">
                    <mxGeometry x="420" y="279.5" width="270" height="233.5" as="geometry"/>
                </mxCell>
                <mxCell id="E9rqh3Xw5hFvDiPMlZkM-11" value="Backyard コンテナ群" style="whiteSpace=wrap;html=1;fontSize=14;verticalAlign=top;strokeColor=none;" parent="1" vertex="1">
                    <mxGeometry x="120" y="390" width="270" height="204" as="geometry"/>
                </mxCell>
                <mxCell id="E9rqh3Xw5hFvDiPMlZkM-12" value="DBMS機能" style="whiteSpace=wrap;html=1;fontSize=14;verticalAlign=middle;strokeColor=none;" parent="1" vertex="1">
                    <mxGeometry x="120" y="612" width="270" height="44" as="geometry"/>
                </mxCell>
                <mxCell id="E9rqh3Xw5hFvDiPMlZkM-13" value="データリレイトレージ&lt;br&gt;(IN/OUT)" style="shape=cylinder3;whiteSpace=wrap;html=1;boundedLbl=1;backgroundOutline=1;size=15;flipV=0;flipH=0;direction=south;strokeColor=#FFFFFF;strokeWidth=2;fontSize=14;fillColor=#dae8fc;gradientColor=#A7D1E3;gradientDirection=east;" parent="1" vertex="1">
                    <mxGeometry x="120" y="704" width="270" height="60" as="geometry"/>
                </mxCell>
                <mxCell id="E9rqh3Xw5hFvDiPMlZkM-14" value="外部連携データ" style="whiteSpace=wrap;html=1;fontSize=14;verticalAlign=middle;strokeColor=none;fillColor=none;" parent="1" vertex="1">
                    <mxGeometry x="120" y="670" width="270" height="44" as="geometry"/>
                </mxCell>
                <mxCell id="E9rqh3Xw5hFvDiPMlZkM-15" value="" style="whiteSpace=wrap;html=1;fillColor=#fff2cc;fontSize=14;strokeColor=#d6b656;verticalAlign=middle;gradientColor=#ffd966;" parent="1" vertex="1">
                    <mxGeometry x="141" y="200" width="228" height="36" as="geometry"/>
                </mxCell>
                <mxCell id="E9rqh3Xw5hFvDiPMlZkM-16" value="" style="whiteSpace=wrap;html=1;fillColor=#fff2cc;fontSize=14;strokeColor=#d6b656;verticalAlign=middle;gradientColor=#ffd966;" parent="1" vertex="1">
                    <mxGeometry x="141" y="243.5" width="228" height="36" as="geometry"/>
                </mxCell>
                <mxCell id="E9rqh3Xw5hFvDiPMlZkM-17" value="" style="whiteSpace=wrap;html=1;fillColor=#fff2cc;fontSize=14;strokeColor=#d6b656;verticalAlign=middle;gradientColor=#ffd966;" parent="1" vertex="1">
                    <mxGeometry x="141" y="286" width="228" height="36" as="geometry"/>
                </mxCell>
                <mxCell id="E9rqh3Xw5hFvDiPMlZkM-18" value="・&lt;br style=&quot;font-size: 10px;&quot;&gt;・&lt;br style=&quot;font-size: 10px;&quot;&gt;・" style="rounded=0;whiteSpace=wrap;html=1;strokeColor=none;strokeWidth=2;fontSize=10;fillColor=none;fontStyle=1" parent="1" vertex="1">
                    <mxGeometry x="143.2" y="339.9999999999999" width="218.8" height="10" as="geometry"/>
                </mxCell>
                <mxCell id="E9rqh3Xw5hFvDiPMlZkM-19" value="" style="whiteSpace=wrap;html=1;fillColor=#fff2cc;fontSize=14;strokeColor=#d6b656;verticalAlign=middle;gradientColor=#ffd966;" parent="1" vertex="1">
                    <mxGeometry x="141" y="420" width="228" height="36" as="geometry"/>
                </mxCell>
                <mxCell id="E9rqh3Xw5hFvDiPMlZkM-20" value="" style="whiteSpace=wrap;html=1;fillColor=#fff2cc;fontSize=14;strokeColor=#d6b656;verticalAlign=middle;gradientColor=#ffd966;" parent="1" vertex="1">
                    <mxGeometry x="141" y="463.5" width="228" height="36" as="geometry"/>
                </mxCell>
                <mxCell id="E9rqh3Xw5hFvDiPMlZkM-21" value="" style="whiteSpace=wrap;html=1;fillColor=#fff2cc;fontSize=14;strokeColor=#d6b656;verticalAlign=middle;gradientColor=#ffd966;" parent="1" vertex="1">
                    <mxGeometry x="141" y="506" width="228" height="36" as="geometry"/>
                </mxCell>
                <mxCell id="E9rqh3Xw5hFvDiPMlZkM-22" value="・&lt;br style=&quot;font-size: 10px;&quot;&gt;・&lt;br style=&quot;font-size: 10px;&quot;&gt;・" style="rounded=0;whiteSpace=wrap;html=1;strokeColor=none;strokeWidth=2;fontSize=10;fillColor=none;fontStyle=1" parent="1" vertex="1">
                    <mxGeometry x="143.2" y="559.9999999999999" width="218.8" height="10" as="geometry"/>
                </mxCell>
                <mxCell id="E9rqh3Xw5hFvDiPMlZkM-23" value="ita--by-ansible-execute" style="whiteSpace=wrap;html=1;fillColor=#fff2cc;fontSize=14;strokeColor=#d6b656;verticalAlign=middle;gradientColor=#ffd966;" parent="1" vertex="1">
                    <mxGeometry x="441" y="324" width="228" height="46" as="geometry"/>
                </mxCell>
                <mxCell id="E9rqh3Xw5hFvDiPMlZkM-24" value="ita-by-ansible-agent" style="whiteSpace=wrap;html=1;fillColor=#fff2cc;fontSize=14;strokeColor=#d6b656;verticalAlign=top;gradientColor=#ffd966;" parent="1" vertex="1">
                    <mxGeometry x="441" y="393" width="228" height="90" as="geometry"/>
                </mxCell>
                <mxCell id="E9rqh3Xw5hFvDiPMlZkM-25" value="Ansible Core" style="whiteSpace=wrap;html=1;fillColor=#f5f5f5;fontSize=14;strokeColor=#666666;verticalAlign=middle;gradientColor=#b3b3b3;" parent="1" vertex="1">
                    <mxGeometry x="456" y="429" width="198" height="36" as="geometry"/>
                </mxCell>
                <mxCell id="E9rqh3Xw5hFvDiPMlZkM-26" style="edgeStyle=orthogonalEdgeStyle;rounded=1;orthogonalLoop=1;jettySize=auto;html=1;exitX=0;exitY=0.5;exitDx=0;exitDy=0;fontSize=14;jumpStyle=gap;strokeColor=#333333;entryX=0.5;entryY=0;entryDx=0;entryDy=0;entryPerimeter=0;" parent="1" source="E9rqh3Xw5hFvDiPMlZkM-23" target="E9rqh3Xw5hFvDiPMlZkM-13" edge="1">
                    <mxGeometry relative="1" as="geometry">
                        <mxPoint x="679" y="357" as="sourcePoint"/>
                        <mxPoint x="826" y="358" as="targetPoint"/>
                        <Array as="points">
                            <mxPoint x="410" y="347"/>
                            <mxPoint x="410" y="734"/>
                        </Array>
                    </mxGeometry>
                </mxCell>
                <mxCell id="E9rqh3Xw5hFvDiPMlZkM-29" value="" style="edgeStyle=elbowEdgeStyle;html=1;fontColor=#333333;startArrow=classic;startFill=1;endArrow=none;endFill=0;strokeColor=#333333;strokeWidth=1;jumpStyle=gap;entryX=1;entryY=0.5;entryDx=0;entryDy=0;exitX=0;exitY=0.5;exitDx=0;exitDy=0;" parent="1" source="E9rqh3Xw5hFvDiPMlZkM-6" target="g_sPdD5koaNXhPQd8Cwu-50" edge="1">
                    <mxGeometry relative="1" as="geometry">
                        <mxPoint x="935.5" y="992.0000000000002" as="sourcePoint"/>
                        <mxPoint x="654" y="472.5" as="targetPoint"/>
                        <Array as="points">
                            <mxPoint x="1330" y="410"/>
                        </Array>
                    </mxGeometry>
                </mxCell>
                <mxCell id="E9rqh3Xw5hFvDiPMlZkM-30" value="" style="edgeStyle=elbowEdgeStyle;html=1;fontColor=#333333;startArrow=classic;startFill=1;endArrow=none;endFill=0;strokeColor=#333333;strokeWidth=1;jumpStyle=gap;entryX=1;entryY=0.5;entryDx=0;entryDy=0;exitX=0;exitY=0.5;exitDx=0;exitDy=0;" parent="1" source="E9rqh3Xw5hFvDiPMlZkM-7" target="g_sPdD5koaNXhPQd8Cwu-50" edge="1">
                    <mxGeometry relative="1" as="geometry">
                        <mxPoint x="854.9230769230771" y="377.1249999999998" as="sourcePoint"/>
                        <mxPoint x="654" y="472.5" as="targetPoint"/>
                        <Array as="points">
                            <mxPoint x="1330" y="310"/>
                        </Array>
                    </mxGeometry>
                </mxCell>
                <mxCell id="g_sPdD5koaNXhPQd8Cwu-47" value="Git" style="whiteSpace=wrap;html=1;fillColor=#d5e8d4;fontSize=14;strokeColor=#82b366;verticalAlign=middle;gradientColor=#B9E0A5;" parent="1" vertex="1">
                    <mxGeometry x="854" y="624.25" width="270" height="36" as="geometry"/>
                </mxCell>
                <mxCell id="g_sPdD5koaNXhPQd8Cwu-48" value="Git リポジトリ" style="shape=cylinder3;whiteSpace=wrap;html=1;boundedLbl=1;backgroundOutline=1;size=15;flipV=0;flipH=0;direction=south;strokeColor=#FFFFFF;strokeWidth=2;fontSize=14;fillColor=#DAE8FC;gradientColor=#A7D1E3;gradientDirection=east;" parent="1" vertex="1">
                    <mxGeometry x="854" y="670.25" width="270" height="60" as="geometry"/>
                </mxCell>
                <mxCell id="g_sPdD5koaNXhPQd8Cwu-49" value="" style="group" parent="1" vertex="1" connectable="0">
                    <mxGeometry x="790" y="232.75" width="398" height="321.0183590644357" as="geometry"/>
                </mxCell>
                <mxCell id="g_sPdD5koaNXhPQd8Cwu-50" value="&lt;font style=&quot;font-size: 18px;&quot;&gt;Hybrid ノード&lt;/font&gt;" style="whiteSpace=wrap;html=1;fillColor=#dae8fc;fontSize=16;strokeColor=#6c8ebf;verticalAlign=top;" parent="g_sPdD5koaNXhPQd8Cwu-49" vertex="1">
                    <mxGeometry x="29" y="10" width="340" height="240" as="geometry"/>
                </mxCell>
                <mxCell id="g_sPdD5koaNXhPQd8Cwu-51" value="SCM管理ディレクトリ" style="shape=cylinder3;whiteSpace=wrap;html=1;boundedLbl=1;backgroundOutline=1;size=15;flipV=0;flipH=0;direction=south;strokeColor=#FFFFFF;strokeWidth=2;fontSize=14;fillColor=#dae8fc;gradientColor=#A7D1E3;gradientDirection=east;" parent="g_sPdD5koaNXhPQd8Cwu-49" vertex="1">
                    <mxGeometry x="64" y="67.5" width="270" height="60" as="geometry"/>
                </mxCell>
                <mxCell id="g_sPdD5koaNXhPQd8Cwu-52" value="ITA作業用ディレクトリ" style="shape=cylinder3;whiteSpace=wrap;html=1;boundedLbl=1;backgroundOutline=1;size=15;flipV=0;flipH=0;direction=south;strokeColor=#FFFFFF;strokeWidth=2;fontSize=14;fillColor=#dae8fc;gradientColor=#A7D1E3;gradientDirection=east;" parent="g_sPdD5koaNXhPQd8Cwu-49" vertex="1">
                    <mxGeometry x="64" y="144" width="270" height="60" as="geometry"/>
                </mxCell>
                <mxCell id="g_sPdD5koaNXhPQd8Cwu-53" value="・&lt;br style=&quot;font-size: 12px;&quot;&gt;・&lt;br style=&quot;font-size: 12px;&quot;&gt;・" style="rounded=0;whiteSpace=wrap;html=1;strokeColor=none;strokeWidth=2;fontSize=12;fillColor=none;fontStyle=1" parent="g_sPdD5koaNXhPQd8Cwu-49" vertex="1">
                    <mxGeometry x="89.59829059829065" y="260.0032901913655" width="218.80341880341882" height="61.01506887307017" as="geometry"/>
                </mxCell>
                <mxCell id="g_sPdD5koaNXhPQd8Cwu-54" style="edgeStyle=orthogonalEdgeStyle;rounded=1;orthogonalLoop=1;jettySize=auto;html=1;fontSize=14;jumpStyle=gap;strokeColor=#333333;entryX=1;entryY=0.5;entryDx=0;entryDy=0;exitX=1;exitY=0.75;exitDx=0;exitDy=0;" parent="1" source="g_sPdD5koaNXhPQd8Cwu-50" target="g_sPdD5koaNXhPQd8Cwu-47" edge="1">
                    <mxGeometry relative="1" as="geometry">
                        <mxPoint x="604" y="-508.2499999999998" as="sourcePoint"/>
                        <mxPoint x="815" y="-174.75" as="targetPoint"/>
                        <Array as="points">
                            <mxPoint x="1250" y="423"/>
                            <mxPoint x="1250" y="642"/>
                        </Array>
                    </mxGeometry>
                </mxCell>
                <mxCell id="g_sPdD5koaNXhPQd8Cwu-55" value="" style="whiteSpace=wrap;html=1;fillColor=#dae8fc;fontSize=16;strokeColor=#6c8ebf;verticalAlign=top;" parent="1" vertex="1">
                    <mxGeometry x="820" y="550.25" width="340" height="37" as="geometry"/>
                </mxCell>
                <mxCell id="g_sPdD5koaNXhPQd8Cwu-56" style="edgeStyle=orthogonalEdgeStyle;rounded=1;orthogonalLoop=1;jettySize=auto;html=1;exitX=1;exitY=0.25;exitDx=0;exitDy=0;fontSize=14;jumpStyle=gap;strokeColor=#333333;entryX=0.003;entryY=0.386;entryDx=0;entryDy=0;entryPerimeter=0;" parent="1" source="E9rqh3Xw5hFvDiPMlZkM-23" target="g_sPdD5koaNXhPQd8Cwu-50" edge="1">
                    <mxGeometry relative="1" as="geometry">
                        <mxPoint x="810" y="334" as="targetPoint"/>
                        <mxPoint x="669" y="343.45" as="sourcePoint"/>
                    </mxGeometry>
                </mxCell>
                <mxCell id="g_sPdD5koaNXhPQd8Cwu-57" style="edgeStyle=orthogonalEdgeStyle;rounded=1;orthogonalLoop=1;jettySize=auto;html=1;fontSize=14;jumpStyle=gap;strokeColor=#333333;entryX=0;entryY=0.5;entryDx=0;entryDy=0;exitX=1;exitY=0.75;exitDx=0;exitDy=0;" parent="1" source="E9rqh3Xw5hFvDiPMlZkM-23" target="g_sPdD5koaNXhPQd8Cwu-47" edge="1">
                    <mxGeometry relative="1" as="geometry">
                        <mxPoint x="680" y="360" as="sourcePoint"/>
                        <mxPoint x="881" y="690.75" as="targetPoint"/>
                    </mxGeometry>
                </mxCell>
                <mxCell id="g_sPdD5koaNXhPQd8Cwu-58" value="① http&lt;br style=&quot;font-size: 17px;&quot;&gt;② ssh" style="whiteSpace=wrap;html=1;fontSize=17;verticalAlign=middle;strokeColor=none;fillColor=none;align=left;fontColor=#333333;" parent="1" vertex="1">
                    <mxGeometry x="720" y="286" width="80" height="44" as="geometry"/>
                </mxCell>
                <mxCell id="g_sPdD5koaNXhPQd8Cwu-59" value="③ http" style="whiteSpace=wrap;html=1;fontSize=17;verticalAlign=middle;strokeColor=none;fillColor=none;align=left;fontColor=#333333;" parent="1" vertex="1">
                    <mxGeometry x="750" y="643.13" width="80" height="44" as="geometry"/>
                </mxCell>
                <mxCell id="g_sPdD5koaNXhPQd8Cwu-60" value="⑤ http" style="whiteSpace=wrap;html=1;fontSize=17;verticalAlign=middle;strokeColor=none;fillColor=none;align=left;fontColor=#333333;" parent="1" vertex="1">
                    <mxGeometry x="1168" y="643.13" width="80" height="44" as="geometry"/>
                </mxCell>
                <mxCell id="g_sPdD5koaNXhPQd8Cwu-61" value="&lt;span style=&quot;color: rgb(0, 0, 0); text-align: center;&quot;&gt;④ ssh,telnet,他&lt;/span&gt;" style="whiteSpace=wrap;html=1;fontSize=17;verticalAlign=middle;strokeColor=none;fillColor=none;align=left;fontColor=#333333;" parent="1" vertex="1">
                    <mxGeometry x="1181" y="322" width="123" height="44" as="geometry"/>
                </mxCell>
                <mxCell id="x-M9ZkG7FRh0NDrmPanU-1" style="edgeStyle=orthogonalEdgeStyle;rounded=1;orthogonalLoop=1;jettySize=auto;html=1;exitX=1;exitY=0.5;exitDx=0;exitDy=0;fontSize=14;jumpStyle=gap;strokeColor=#333333;entryX=0;entryY=0.5;entryDx=0;entryDy=0;" parent="1" source="g_sPdD5koaNXhPQd8Cwu-50" target="E9rqh3Xw5hFvDiPMlZkM-4" edge="1">
                    <mxGeometry relative="1" as="geometry">
                        <mxPoint x="1339.8899999999999" y="403.2700000000001" as="targetPoint"/>
                        <mxPoint x="1200" y="402.34000000000003" as="sourcePoint"/>
                    </mxGeometry>
                </mxCell>
            </root>
        </mxGraphModel>
    </diagram>
    <diagram name="playbook連携" id="W60WxNa4HCeSVzPPv-fU">
        <mxGraphModel dx="1094" dy="709" grid="1" gridSize="10" guides="1" tooltips="1" connect="1" arrows="1" fold="1" page="1" pageScale="1" pageWidth="2336" pageHeight="1654" math="0" shadow="0">
            <root>
                <mxCell id="Yoh04sfaqgSX8Owsgdn5-0"/>
                <mxCell id="Yoh04sfaqgSX8Owsgdn5-1" parent="Yoh04sfaqgSX8Owsgdn5-0"/>
                <mxCell id="Yoh04sfaqgSX8Owsgdn5-2" value="" style="rounded=0;whiteSpace=wrap;html=1;fontSize=6;strokeColor=#6C8EBF;fillColor=#DAE8FC;" parent="Yoh04sfaqgSX8Owsgdn5-1" vertex="1">
                    <mxGeometry x="10" y="260" width="1140" height="540" as="geometry"/>
                </mxCell>
                <mxCell id="Yoh04sfaqgSX8Owsgdn5-3" style="edgeStyle=orthogonalEdgeStyle;rounded=1;orthogonalLoop=1;jettySize=auto;html=1;exitX=1;exitY=0.5;exitDx=0;exitDy=0;entryX=0;entryY=0.5;entryDx=0;entryDy=0;entryPerimeter=0;fontSize=20;" parent="Yoh04sfaqgSX8Owsgdn5-1" source="Yoh04sfaqgSX8Owsgdn5-10" target="Yoh04sfaqgSX8Owsgdn5-6" edge="1">
                    <mxGeometry relative="1" as="geometry">
                        <mxPoint x="410" y="475" as="targetPoint"/>
                    </mxGeometry>
                </mxCell>
                <mxCell id="Yoh04sfaqgSX8Owsgdn5-4" style="edgeStyle=orthogonalEdgeStyle;rounded=1;orthogonalLoop=1;jettySize=auto;html=1;exitX=1;exitY=0;exitDx=0;exitDy=19;exitPerimeter=0;entryX=0;entryY=0.5;entryDx=0;entryDy=0;entryPerimeter=0;fontSize=20;" parent="Yoh04sfaqgSX8Owsgdn5-1" source="Yoh04sfaqgSX8Owsgdn5-6" target="Yoh04sfaqgSX8Owsgdn5-17" edge="1">
                    <mxGeometry relative="1" as="geometry">
                        <mxPoint x="580" y="475" as="sourcePoint"/>
                    </mxGeometry>
                </mxCell>
                <mxCell id="Yoh04sfaqgSX8Owsgdn5-5" style="edgeStyle=orthogonalEdgeStyle;rounded=1;orthogonalLoop=1;jettySize=auto;html=1;exitX=0.5;exitY=1;exitDx=0;exitDy=0;exitPerimeter=0;entryX=0.5;entryY=0;entryDx=0;entryDy=0;entryPerimeter=0;fontSize=20;" parent="Yoh04sfaqgSX8Owsgdn5-1" source="Yoh04sfaqgSX8Owsgdn5-6" target="Yoh04sfaqgSX8Owsgdn5-16" edge="1">
                    <mxGeometry relative="1" as="geometry"/>
                </mxCell>
                <mxCell id="Yoh04sfaqgSX8Owsgdn5-6" value="Playbook一式" style="shape=cylinder3;whiteSpace=wrap;html=1;boundedLbl=1;backgroundOutline=1;size=8;fontSize=14;fillColor=#DBF4FF;strokeColor=#6c8ebf;strokeWidth=2;gradientColor=#A7D1E3;" parent="Yoh04sfaqgSX8Owsgdn5-1" vertex="1">
                    <mxGeometry x="380" y="445" width="130" height="60" as="geometry"/>
                </mxCell>
                <mxCell id="Yoh04sfaqgSX8Owsgdn5-7" value="&lt;font style=&quot;font-size: 13px;&quot;&gt;&lt;font style=&quot;font-size: 19px;&quot;&gt;① Playbook 一式を抽出する&lt;/font&gt;&lt;br&gt;&lt;br&gt;&lt;span style=&quot;font-size: 18px;&quot;&gt;② Playbook 一式を Ansible Automation Controller と連携する Gitリポジトリを作成&lt;br&gt;&lt;/span&gt;&lt;br style=&quot;border-color: var(--border-color);&quot;&gt;&lt;span style=&quot;border-color: var(--border-color); font-size: 18px;&quot;&gt;③ RestAPI経由で Playbook 実行に必要なデータリソース(Git 接続情報を含む)の生成&lt;br&gt;&lt;/span&gt;&lt;br style=&quot;border-color: var(--border-color);&quot;&gt;&lt;span style=&quot;border-color: var(--border-color); font-size: 18px;&quot;&gt;④ Playbook 一式を ITA作業用ディレクトリにファイル転送(scp)&lt;br&gt;&lt;/span&gt;&lt;br style=&quot;border-color: var(--border-color);&quot;&gt;&lt;span style=&quot;border-color: var(--border-color); font-size: 18px;&quot;&gt;⑤ ITAに作成されている Gitリポジトリを SCM管理ディレクトリに連携&lt;/span&gt;&lt;br&gt;&lt;/font&gt;" style="rounded=0;whiteSpace=wrap;html=1;fontSize=6;align=left;fillColor=none;strokeColor=none;" parent="Yoh04sfaqgSX8Owsgdn5-1" vertex="1">
                    <mxGeometry x="50" y="630" width="740" height="140" as="geometry"/>
                </mxCell>
                <mxCell id="Yoh04sfaqgSX8Owsgdn5-8" value="&lt;span style=&quot;font-size: 20px;&quot;&gt;ita-by-ansible-execute&lt;/span&gt;" style="rounded=1;whiteSpace=wrap;html=1;fontSize=20;fillColor=#DAE8FC;strokeColor=#6c8ebf;fontStyle=1;gradientColor=#5A96B5;" parent="Yoh04sfaqgSX8Owsgdn5-1" vertex="1">
                    <mxGeometry x="30" y="280" width="650" height="60" as="geometry"/>
                </mxCell>
                <mxCell id="Yoh04sfaqgSX8Owsgdn5-9" value="" style="group;fillColor=default;" parent="Yoh04sfaqgSX8Owsgdn5-1" vertex="1" connectable="0">
                    <mxGeometry x="50" y="365" width="220" height="220" as="geometry"/>
                </mxCell>
                <mxCell id="Yoh04sfaqgSX8Owsgdn5-10" value="&lt;font style=&quot;font-size: 18px;&quot;&gt;Playbook 一式&lt;/font&gt;" style="rounded=0;whiteSpace=wrap;html=1;fontSize=6;verticalAlign=top;fillColor=#FFFFFF;strokeWidth=2;strokeColor=#6C8EBF;" parent="Yoh04sfaqgSX8Owsgdn5-9" vertex="1">
                    <mxGeometry width="220" height="220" as="geometry"/>
                </mxCell>
                <mxCell id="Yoh04sfaqgSX8Owsgdn5-11" value="DB" style="shape=cylinder3;whiteSpace=wrap;html=1;boundedLbl=1;backgroundOutline=1;size=6;fontSize=19;fillColor=#DBF4FF;strokeColor=#6c8ebf;strokeWidth=2;gradientColor=#7ea6e0;" parent="Yoh04sfaqgSX8Owsgdn5-9" vertex="1">
                    <mxGeometry x="20" y="60" width="180" height="70" as="geometry"/>
                </mxCell>
                <mxCell id="Yoh04sfaqgSX8Owsgdn5-12" value="コンテンツファイル" style="shape=cylinder3;whiteSpace=wrap;html=1;boundedLbl=1;backgroundOutline=1;size=6;fontSize=16;fillColor=#DBF4FF;strokeColor=#6c8ebf;strokeWidth=2;gradientColor=#A7D1E3;" parent="Yoh04sfaqgSX8Owsgdn5-9" vertex="1">
                    <mxGeometry x="20" y="140" width="180" height="70" as="geometry"/>
                </mxCell>
                <mxCell id="zTnW1SuqiynqlhBULim2-0" value="DB" style="shape=cylinder3;whiteSpace=wrap;html=1;boundedLbl=1;backgroundOutline=1;size=6;fontSize=19;fillColor=#DBF4FF;strokeColor=#6c8ebf;strokeWidth=2;gradientColor=#A7D1E3;" parent="Yoh04sfaqgSX8Owsgdn5-9" vertex="1">
                    <mxGeometry x="20" y="60" width="180" height="70" as="geometry"/>
                </mxCell>
                <mxCell id="Yoh04sfaqgSX8Owsgdn5-13" value="&lt;font style=&quot;font-size: 25px;&quot;&gt;&lt;span style=&quot;font-size: 25px;&quot;&gt;①&lt;/span&gt;&lt;br style=&quot;font-size: 25px;&quot;&gt;&lt;/font&gt;" style="rounded=0;whiteSpace=wrap;html=1;fontSize=25;align=left;fillColor=none;strokeColor=none;" parent="Yoh04sfaqgSX8Owsgdn5-1" vertex="1">
                    <mxGeometry x="310" y="430" width="30" height="30" as="geometry"/>
                </mxCell>
                <mxCell id="Yoh04sfaqgSX8Owsgdn5-14" value="&lt;font style=&quot;font-size: 25px;&quot;&gt;&lt;span style=&quot;font-size: 25px;&quot;&gt;②&lt;/span&gt;&lt;br style=&quot;font-size: 25px;&quot;&gt;&lt;/font&gt;" style="rounded=0;whiteSpace=wrap;html=1;fontSize=25;align=left;fillColor=none;strokeColor=none;" parent="Yoh04sfaqgSX8Owsgdn5-1" vertex="1">
                    <mxGeometry x="480" y="502.5" width="30" height="30" as="geometry"/>
                </mxCell>
                <mxCell id="Yoh04sfaqgSX8Owsgdn5-15" value="&lt;font style=&quot;font-size: 20px;&quot;&gt;Ansible Automation Platform&lt;/font&gt;" style="rounded=1;whiteSpace=wrap;html=1;fontSize=20;fillColor=#DAE8FC;strokeColor=#6c8ebf;fontStyle=1;gradientColor=#5A96B5;" parent="Yoh04sfaqgSX8Owsgdn5-1" vertex="1">
                    <mxGeometry x="710" y="280" width="420" height="60" as="geometry"/>
                </mxCell>
                <mxCell id="Yoh04sfaqgSX8Owsgdn5-16" value="Git リポジトリ" style="shape=cylinder3;whiteSpace=wrap;html=1;boundedLbl=1;backgroundOutline=1;size=8;fontSize=14;fillColor=#DBF4FF;strokeColor=#6c8ebf;strokeWidth=2;gradientColor=#A7D1E3;" parent="Yoh04sfaqgSX8Owsgdn5-1" vertex="1">
                    <mxGeometry x="380" y="532.5" width="130" height="60" as="geometry"/>
                </mxCell>
                <mxCell id="Yoh04sfaqgSX8Owsgdn5-17" value="Playbook実行に&lt;br&gt;必要なデータリソース" style="shape=cylinder3;whiteSpace=wrap;html=1;boundedLbl=1;backgroundOutline=1;size=11.142857142857167;fontSize=22;fillColor=#DBF4FF;strokeColor=#6c8ebf;strokeWidth=2;verticalAlign=top;gradientColor=#A7D1E3;" parent="Yoh04sfaqgSX8Owsgdn5-1" vertex="1">
                    <mxGeometry x="800" y="361.88" width="300" height="98.12" as="geometry"/>
                </mxCell>
                <mxCell id="Yoh04sfaqgSX8Owsgdn5-18" value="ITA作業用ディレクトリ&lt;br&gt;(var/lib/exastro)" style="shape=cylinder3;whiteSpace=wrap;html=1;boundedLbl=1;backgroundOutline=1;size=11.142857142857167;fontSize=22;fillColor=#DBF4FF;strokeColor=#6c8ebf;strokeWidth=2;verticalAlign=top;gradientColor=#A7D1E3;" parent="Yoh04sfaqgSX8Owsgdn5-1" vertex="1">
                    <mxGeometry x="800" y="468.44000000000005" width="300" height="98.12" as="geometry"/>
                </mxCell>
                <mxCell id="Yoh04sfaqgSX8Owsgdn5-19" value="SCM管理ディレクトリ&lt;br&gt;(var/lib/awx/projects)" style="shape=cylinder3;whiteSpace=wrap;html=1;boundedLbl=1;backgroundOutline=1;size=11.142857142857167;fontSize=22;fillColor=#DBF4FF;strokeColor=#6c8ebf;strokeWidth=2;verticalAlign=top;gradientColor=#A7D1E3;" parent="Yoh04sfaqgSX8Owsgdn5-1" vertex="1">
                    <mxGeometry x="800" y="585" width="300" height="98.12" as="geometry"/>
                </mxCell>
                <mxCell id="Yoh04sfaqgSX8Owsgdn5-20" style="edgeStyle=orthogonalEdgeStyle;rounded=1;orthogonalLoop=1;jettySize=auto;html=1;exitX=1;exitY=0;exitDx=0;exitDy=41.00000000000001;exitPerimeter=0;entryX=0;entryY=0.5;entryDx=0;entryDy=0;entryPerimeter=0;fontSize=20;" parent="Yoh04sfaqgSX8Owsgdn5-1" source="Yoh04sfaqgSX8Owsgdn5-6" target="Yoh04sfaqgSX8Owsgdn5-18" edge="1">
                    <mxGeometry relative="1" as="geometry">
                        <mxPoint x="520" y="485" as="sourcePoint"/>
                        <mxPoint x="810" y="409.0600000000002" as="targetPoint"/>
                    </mxGeometry>
                </mxCell>
                <mxCell id="Yoh04sfaqgSX8Owsgdn5-21" style="edgeStyle=orthogonalEdgeStyle;rounded=1;orthogonalLoop=1;jettySize=auto;html=1;exitX=1;exitY=0.5;exitDx=0;exitDy=0;exitPerimeter=0;entryX=0;entryY=0.5;entryDx=0;entryDy=0;entryPerimeter=0;fontSize=20;" parent="Yoh04sfaqgSX8Owsgdn5-1" source="Yoh04sfaqgSX8Owsgdn5-16" target="Yoh04sfaqgSX8Owsgdn5-19" edge="1">
                    <mxGeometry relative="1" as="geometry">
                        <mxPoint x="520" y="485" as="sourcePoint"/>
                        <mxPoint x="810" y="527.5000000000002" as="targetPoint"/>
                    </mxGeometry>
                </mxCell>
                <mxCell id="Yoh04sfaqgSX8Owsgdn5-22" value="&lt;font style=&quot;font-size: 25px;&quot;&gt;③&lt;br style=&quot;font-size: 25px;&quot;&gt;&lt;/font&gt;" style="rounded=0;whiteSpace=wrap;html=1;fontSize=25;align=left;fillColor=none;strokeColor=none;" parent="Yoh04sfaqgSX8Owsgdn5-1" vertex="1">
                    <mxGeometry x="570" y="420" width="30" height="30" as="geometry"/>
                </mxCell>
                <mxCell id="Yoh04sfaqgSX8Owsgdn5-23" value="&lt;font style=&quot;font-size: 25px;&quot;&gt;④&lt;br style=&quot;font-size: 25px;&quot;&gt;&lt;/font&gt;" style="rounded=0;whiteSpace=wrap;html=1;fontSize=25;align=left;fillColor=none;strokeColor=none;" parent="Yoh04sfaqgSX8Owsgdn5-1" vertex="1">
                    <mxGeometry x="570" y="502.5" width="30" height="30" as="geometry"/>
                </mxCell>
                <mxCell id="Yoh04sfaqgSX8Owsgdn5-24" value="&lt;font style=&quot;font-size: 25px;&quot;&gt;⑤&lt;br style=&quot;font-size: 25px;&quot;&gt;&lt;/font&gt;" style="rounded=0;whiteSpace=wrap;html=1;fontSize=25;align=left;fillColor=none;strokeColor=none;" parent="Yoh04sfaqgSX8Owsgdn5-1" vertex="1">
                    <mxGeometry x="570" y="570" width="30" height="30" as="geometry"/>
                </mxCell>
            </root>
        </mxGraphModel>
    </diagram>
</mxfile>